# xmcd
#
# Track frame offsets: 
#        164
#        26882
#        45924
#        65565
#        89130
#        111714
#        141063
#        162062
#        180786
#        198063
#        217648
#
# Disc length: 3137 seconds
#
# Revision: 0
# Processed by: cddbd v1.5.2PL0 Copyright (c) Steve Scherf et al.
# Submitted via: ExactAudioCopy v0.99pb4
#
DISCID=8f0c3f0b
DTITLE=Roy Ayers - In The Dark
DYEAR=1984
DGENRE=Soul
TTITLE0=In The Dark
TTITLE1=Sexy, Sexy, Sexy
TTITLE2=I Can't Help It
TTITLE3=Compadre
TTITLE4=Goree Island
TTITLE5=Poo Poo La La Feat Miki Howard
TTITLE6=Blast The Box
TTITLE7=Love Is In The Feel
TTITLE8=In The Dark (7" Version)
TTITLE9=Poo Poo La La (Edit) Feat Miki Howard
TTITLE10=Love Is In The Feel (7" Version)
EXTD=
EXTT0=
EXTT1=
EXTT2=
EXTT3=
EXTT4=
EXTT5=
EXTT6=
EXTT7=
EXTT8=
EXTT9=
EXTT10=
PLAYORDER=
